<svg xmlns="http://www.w3.org/2000/svg" viewBox="0 0 128 128" fill="none">
  <defs>
    <linearGradient id="outerFill" x1="28" y1="18" x2="102" y2="98" gradientUnits="userSpaceOnUse">
      <stop stop-color="#2A5DCD" />
      <stop offset="0.52" stop-color="#1544A7" />
      <stop offset="1" stop-color="#0D2F84" />
    </linearGradient>
    <radialGradient
      id="outerHighlight"
      cx="0"
      cy="0"
      r="1"
      gradientUnits="userSpaceOnUse"
      gradientTransform="translate(51 29) rotate(52.5) scale(43 51)"
    >
      <stop stop-color="#7CB6FF" stop-opacity="0.95" />
      <stop offset="1" stop-color="#7CB6FF" stop-opacity="0" />
    </radialGradient>
    <linearGradient id="innerFill" x1="41" y1="29" x2="87" y2="87" gradientUnits="userSpaceOnUse">
      <stop stop-color="#FBFDFF" />
      <stop offset="1" stop-color="#DCE7F8" />
    </linearGradient>
    <linearGradient
      id="innerShade"
      x1="41"
      y1="40"
      x2="89"
      y2="82"
      gradientUnits="userSpaceOnUse"
    >
      <stop stop-color="#FFFFFF" stop-opacity="0.8" />
      <stop offset="1" stop-color="#A3B9D6" stop-opacity="0.18" />
    </linearGradient>
    <linearGradient
      id="centerFill"
      x1="52"
      y1="46"
      x2="78"
      y2="80"
      gradientUnits="userSpaceOnUse"
    >
      <stop stop-color="#D5F0FF" />
      <stop offset="1" stop-color="#69ABE2" />
    </linearGradient>
    <radialGradient id="shadowFill" cx="0" cy="0" r="1" gradientUnits="userSpaceOnUse" gradientTransform="translate(66 105) rotate(90) scale(12 36)">
      <stop stop-color="#3D78FF" stop-opacity="0.48" />
      <stop offset="1" stop-color="#3D78FF" stop-opacity="0" />
    </radialGradient>
    <filter id="shadowBlur" x="18" y="86" width="96" height="38" color-interpolation-filters="sRGB" filterUnits="userSpaceOnUse">
      <feFlood flood-opacity="0" result="BackgroundImageFix" />
      <feBlend in="SourceGraphic" in2="BackgroundImageFix" result="shape" />
      <feGaussianBlur stdDeviation="6" />
    </filter>
    <filter id="outerShadow" x="18" y="10" width="92" height="103" color-interpolation-filters="sRGB" filterUnits="userSpaceOnUse">
      <feFlood flood-opacity="0" result="BackgroundImageFix" />
      <feColorMatrix
        in="SourceAlpha"
        result="hardAlpha"
        values="0 0 0 0 0 0 0 0 0 0 0 0 0 0 0 0 0 0 127 0"
      />
      <feOffset dy="4" />
      <feGaussianBlur stdDeviation="5" />
      <feComposite in2="hardAlpha" operator="out" />
      <feColorMatrix values="0 0 0 0 0.0157 0 0 0 0 0.1059 0 0 0 0 0.3451 0 0 0 0.3 0" />
      <feBlend in2="BackgroundImageFix" result="effect1_dropShadow_0_1" />
      <feBlend in="SourceGraphic" in2="effect1_dropShadow_0_1" result="shape" />
    </filter>
  </defs>

  <g filter="url(#shadowBlur)">
    <ellipse cx="66" cy="105" rx="30" ry="8" fill="url(#shadowFill)" />
  </g>

  <g filter="url(#outerShadow)">
    <polygon
      points="64,14 98,34 98,78 64,98 30,78 30,34"
      fill="url(#outerFill)"
      stroke="#5ED6FF"
      stroke-linejoin="round"
      stroke-width="3"
    />
    <polygon
      points="64,14 98,34 98,78 64,98 30,78 30,34"
      fill="url(#outerHighlight)"
      opacity="0.9"
    />
    <polygon
      points="64,20 92,37 92,75 64,92 36,75 36,37"
      fill="none"
      opacity="0.38"
      stroke="#0A2A7A"
      stroke-linejoin="round"
      stroke-width="5"
    />
  </g>

  <g transform="rotate(14 64 58)">
    <polygon
      points="64,28 88,41 88,75 64,88 40,75 40,41"
      fill="url(#innerFill)"
      stroke="#3262B3"
      stroke-linejoin="round"
      stroke-width="2.5"
    />
    <polygon
      points="64,28 88,41 88,75 64,88 40,75 40,41"
      fill="url(#innerShade)"
      opacity="0.9"
    />
    <polygon
      points="64,32 84,43 84,73 64,84 44,73 44,43"
      fill="none"
      opacity="0.45"
      stroke="#FFFFFF"
      stroke-linejoin="round"
      stroke-width="1.8"
    />
  </g>

  <polygon
    points="64,44 78,52 78,68 64,76 50,68 50,52"
    fill="url(#centerFill)"
    stroke="#3A6DB8"
    stroke-linejoin="round"
    stroke-width="2.5"
  />
  <polygon
    points="64,47 75.5,53.5 75.5,66.5 64,73 52.5,66.5 52.5,53.5"
    fill="none"
    opacity="0.55"
    stroke="#FFFFFF"
    stroke-linejoin="round"
    stroke-width="1.6"
  />
</svg>
